<?xml version="1.0" encoding="UTF-8" standalone="no"?>
<svg width="144px" height="43px" viewBox="0 0 144 43" version="1.1" xmlns="http://www.w3.org/2000/svg" xmlns:xlink="http://www.w3.org/1999/xlink">
  <g id="Artboard" fill="#FFFFFF">
    <path d="M138.3,0 L5.7,0 L0,0 L0,37.5 L0,43.2 L5.7,43.2 L138.4,43.2 L144.1,43.2 L144.1,5.7 L144.1,0 L138.3,0 L138.3,0 L138.3,0 Z M138.3,37.5 L5.7,37.5 L5.7,5.7 L138.4,5.7 L138.4,37.5 L138.3,37.5 L138.3,37.5 Z" id="Shape"></path>
    <path d="M28.7,24.1 L28.7,27.4 C26.8,28.4 24.9,28.9 22.8,28.9 C20.1,28.9 18,28.2 16.4,26.7 C14.8,25.2 14,23.4 14,21.3 C14,19.1 14.8,17.3 16.5,15.8 C18.2,14.3 20.3,13.5 23,13.5 C25.1,13.5 27,13.9 28.4,14.8 L28.4,18.1 C26.6,17.1 24.9,16.6 23.2,16.6 C21.6,16.6 20.3,17 19.3,17.9 C18.3,18.8 17.8,19.8 17.8,21.2 C17.8,22.5 18.3,23.6 19.3,24.5 C20.3,25.4 21.6,25.8 23.1,25.8 C23.9,25.8 24.6,25.7 25.3,25.5 C26.2,25.2 27.3,24.7 28.7,24.1 L28.7,24.1 L28.7,24.1 Z" id="Shape"></path>
    <polygon id="Shape" points="35.5 13.6 35.5 28.6 31.8 28.6 31.8 13.6"></polygon>
    <polygon id="Shape" points="52.5 13.6 52.5 16.4 47.1 16.4 47.1 28.7 43.4 28.7 43.4 16.4 38 16.4 38 13.6"></polygon>
    <polygon id="Shape" points="59.1 28.6 59.1 21.6 53.2 13.6 57.7 13.6 61 18.3 64.3 13.6 68.8 13.6 62.9 21.6 62.9 28.6"></polygon>
    <path d="M70.5,13.6 L77.2,13.6 C78.7,13.6 79.9,14 80.8,14.9 C81.7,15.8 82.1,16.8 82.1,18 C82.1,19.2 81.7,20.3 80.8,21.2 C79.9,22.1 78.7,22.5 77.2,22.5 L74.2,22.5 L74.2,28.5 L70.5,28.5 L70.5,13.6 L70.5,13.6 L70.5,13.6 Z M74.3,16.4 L74.3,19.9 L76,19.9 C77.6,19.9 78.3,19.3 78.3,18.2 C78.3,17.5 78.1,17.1 77.7,16.8 C77.3,16.5 76.6,16.4 75.6,16.4 L74.3,16.4 L74.3,16.4 L74.3,16.4 Z" id="Shape"></path>
    <path d="M91.2,13.6 L97.9,28.6 L93.9,28.6 L92.7,25.6 L86,25.6 L84.9,28.6 L80.9,28.6 L87,13.6 L91.2,13.6 L91.2,13.6 L91.2,13.6 Z M91.5,23 L89.1,17.2 L86.9,23 L91.5,23 L91.5,23 L91.5,23 Z" id="Shape"></path>
    <path d="M112.7,24.1 L112.7,27.4 C110.8,28.4 108.9,28.9 106.8,28.9 C104.1,28.9 102,28.2 100.4,26.7 C98.8,25.2 98,23.4 98,21.3 C98,19.1 98.8,17.3 100.5,15.8 C102.2,14.3 104.3,13.5 107,13.5 C109.1,13.5 111,13.9 112.4,14.8 L112.4,18.1 C110.6,17.1 108.9,16.6 107.2,16.6 C105.6,16.6 104.3,17 103.3,17.9 C102.3,18.8 101.8,19.8 101.8,21.2 C101.8,22.5 102.3,23.6 103.3,24.5 C104.3,25.4 105.6,25.8 107.1,25.8 C107.9,25.8 108.6,25.7 109.3,25.5 C110,25.3 111.3,24.7 112.7,24.1 L112.7,24.1 L112.7,24.1 Z" id="Shape"></path>
    <polygon id="Shape" points="128.3 13.6 123.4 20.7 130 28.6 125.3 28.6 119.3 21.6 119.3 28.6 115.6 28.6 115.6 13.6 119.3 13.6 119.3 20.4 124.1 13.6"></polygon>
  </g>
</svg>